<svg width="11" height="21" viewBox="0 0 11 21" fill="none" xmlns="http://www.w3.org/2000/svg">
<path d="M3.125 20V20.5H3.625H6.82955H7.32955V20V12.002H9.31818H9.76127L9.81455 11.5621L10.2236 8.18513L10.2915 7.625H9.72727H7.32955V5.78711C7.32955 5.28245 7.41696 5.01902 7.50222 4.89978C7.58968 4.78896 7.81268 4.6543 8.36364 4.6543H10H10.5V4.1543V1.14844V0.72261L10.0796 0.654815C9.42919 0.549925 8.60433 0.5 7.61364 0.5C6.29036 0.5 5.18495 0.933515 4.35036 1.8278C3.5118 2.72635 3.125 3.95826 3.125 5.45312V7.625H1H0.5V8.125V11.502V12.002H1H3.125V20Z" stroke="#CCCCCC"/>
</svg>
