<svg width="16" height="16" viewBox="0 0 16 16" fill="none" xmlns="http://www.w3.org/2000/svg">
<path fill-rule="evenodd" clip-rule="evenodd" d="M8 3.89282C8.73809 3.89282 9.42261 4.07735 10.0536 4.44639C10.6845 4.81544 11.1845 5.31544 11.5536 5.94639C11.9226 6.57735 12.1071 7.26187 12.1071 7.99997C12.1071 8.73806 11.9226 9.42258 11.5536 10.0535C11.1845 10.6845 10.6845 11.1845 10.0536 11.5535C9.42261 11.9226 8.73809 12.1071 8 12.1071C7.2619 12.1071 6.57738 11.9226 5.94642 11.5535C5.31547 11.1845 4.81547 10.6845 4.44642 10.0535C4.07738 9.42258 3.89285 8.73806 3.89285 7.99997C3.89285 7.26187 4.07738 6.57735 4.44642 5.94639C4.81547 5.31544 5.31547 4.81544 5.94642 4.44639C6.57738 4.07735 7.2619 3.89282 8 3.89282ZM8.00001 10.7996C8.77145 10.7996 9.43091 10.5259 9.97839 9.97842C10.5259 9.43094 10.7996 8.77148 10.7996 8.00004C10.7996 7.22859 10.5259 6.56913 9.97839 6.02165C9.43091 5.47418 8.77145 5.20044 8.00001 5.20044C7.22856 5.20044 6.5691 5.47418 6.02162 6.02165C5.47415 6.56913 5.20041 7.22859 5.20041 8.00004C5.20041 8.77148 5.47415 9.43094 6.02162 9.97842C6.5691 10.5259 7.22856 10.7996 8.00001 10.7996ZM13.25 3.71429C13.2262 3.97619 13.125 4.20238 12.9464 4.39286C12.7679 4.58333 12.5476 4.67857 12.2857 4.67857C12.0238 4.67857 11.7976 4.58333 11.6072 4.39286C11.4167 4.20238 11.3214 3.97619 11.3214 3.71429C11.3214 3.45238 11.4167 3.22619 11.6072 3.03571C11.7976 2.84524 12.0238 2.75 12.2857 2.75C12.5476 2.75 12.7738 2.84524 12.9643 3.03571C13.1548 3.22619 13.25 3.45238 13.25 3.71429ZM15.9643 4.67857C15.9881 5.34524 16 6.45238 16 8C16 9.54762 15.9821 10.6607 15.9464 11.3393C15.9107 12.0179 15.8095 12.6071 15.6429 13.1071C15.4286 13.7024 15.1012 14.2202 14.6607 14.6607C14.2202 15.1012 13.7024 15.4286 13.1071 15.6429C12.6071 15.8095 12.0179 15.9107 11.3393 15.9464C10.6607 15.9821 9.54762 16 8 16C6.45238 16 5.33929 15.9821 4.66071 15.9464C3.98214 15.9107 3.39286 15.7976 2.89286 15.6071C2.29762 15.4167 1.77976 15.1012 1.33929 14.6607C0.89881 14.2202 0.571429 13.7024 0.357143 13.1071C0.190476 12.6071 0.0892857 12.0179 0.0535714 11.3393C0.0178571 10.6607 0 9.54762 0 8C0 6.45238 0.0178571 5.33929 0.0535714 4.66071C0.0892857 3.98214 0.190476 3.39286 0.357143 2.89286C0.571429 2.29762 0.89881 1.77976 1.33929 1.33929C1.77976 0.89881 2.29762 0.571429 2.89286 0.357143C3.39286 0.190476 3.98214 0.0892857 4.66071 0.0535714C5.33929 0.0178571 6.45238 0 8 0C9.54762 0 10.6607 0.0178571 11.3393 0.0535714C12.0179 0.0892857 12.6071 0.190476 13.1071 0.357143C13.7024 0.571429 14.2202 0.89881 14.6607 1.33929C15.1012 1.77976 15.4286 2.29762 15.6429 2.89286C15.8095 3.39286 15.9167 3.9881 15.9643 4.67857ZM14.4463 12.8623C14.5936 12.4448 14.6918 11.7817 14.7409 10.8731C14.7655 10.3329 14.7778 9.5716 14.7778 8.58932V7.41057C14.7778 6.40373 14.7655 5.64246 14.7409 5.12676C14.6918 4.19358 14.5936 3.53054 14.4463 3.13763C14.1516 2.37635 13.6236 1.84838 12.8623 1.55369C12.4694 1.40635 11.8064 1.30812 10.8732 1.259C10.3329 1.23445 9.57166 1.22217 8.58938 1.22217H7.41063C6.42835 1.22217 5.66708 1.23445 5.12682 1.259C4.2182 1.30812 3.55516 1.40635 3.13769 1.55369C2.37642 1.84838 1.84844 2.37635 1.55375 3.13763C1.40641 3.53054 1.30818 4.19358 1.25906 5.12676C1.23451 5.66701 1.22223 6.42829 1.22223 7.41057V8.58932C1.22223 9.5716 1.23451 10.3329 1.25906 10.8731C1.30818 11.7817 1.40641 12.4448 1.55375 12.8623C1.87299 13.6235 2.40097 14.1515 3.13769 14.4462C3.55516 14.5935 4.2182 14.6918 5.12682 14.7409C5.66708 14.7654 6.42835 14.7777 7.41063 14.7777H8.58938C9.59622 14.7777 10.3575 14.7654 10.8732 14.7409C11.8064 14.6918 12.4694 14.5935 12.8623 14.4462C13.6236 14.127 14.1516 13.599 14.4463 12.8623Z" fill="#CCCCCC"/>
</svg>
