<svg width="20" height="16" viewBox="0 0 20 16" fill="none" xmlns="http://www.w3.org/2000/svg">
<path d="M8.3125 5.28125C8.3125 5.34947 8.3139 5.41766 8.31669 5.48582C7.27004 5.36878 6.27803 5.06907 5.33769 4.58642C4.22285 4.0142 3.28387 3.24687 2.51621 2.28238L2.06721 1.71824L1.69625 2.3365C1.34005 2.93017 1.15625 3.56532 1.15625 4.23438C1.15625 4.83628 1.28775 5.40097 1.55318 5.92082L1.15625 5.68628V6.5625V6.625C1.15625 7.51441 1.44826 8.31416 2.02105 9.00628C2.12445 9.13123 2.23288 9.2482 2.34625 9.35713L2.10212 9.33272L2.33665 10.0598C2.57686 10.8044 3.01779 11.4242 3.64719 11.9111C3.92566 12.1265 4.2239 12.295 4.54024 12.4168C3.69239 12.8481 2.77466 13.0625 1.78125 13.0625C1.50091 13.0625 1.25604 13.0525 1.04527 13.0333L0.72933 13.9517C2.33203 14.9835 4.1033 15.5 6.03125 15.5C8.03683 15.5 9.8316 14.9864 11.3987 13.9497C12.8274 13.0259 13.9375 11.7824 14.7258 10.2288C15.4895 8.76601 15.875 7.23994 15.875 5.65625C15.875 5.59483 15.874 5.53378 15.8715 5.47433C16.464 4.99975 16.9778 4.44604 17.412 3.81451L18.3978 2.38059L16.8012 3.07247C16.7795 3.08187 16.7578 3.09115 16.7361 3.1003C16.8573 2.88302 16.9581 2.65091 17.0381 2.40425L17.4411 1.16166L16.3114 1.81761C15.7859 2.12278 15.2225 2.34622 14.6195 2.48768C14.3144 2.22019 13.9741 1.99988 13.6002 1.82727C13.1236 1.60734 12.6088 1.5 12.0625 1.5C11.3914 1.5 10.7627 1.66898 10.1856 2.00561C9.60853 2.34222 9.15038 2.80718 8.81588 3.39256C8.48139 3.9779 8.3125 4.61019 8.3125 5.28125Z" stroke="#CCCCCC"/>
</svg>
