<svg width="21" height="14" viewBox="0 0 21 14" fill="none" xmlns="http://www.w3.org/2000/svg">
<path d="M17.8743 6.14806L17.8795 6.14013L17.8843 6.13201C18.3802 5.30449 18.8062 4.57567 19.162 3.94596C19.6474 3.08676 19.97 2.40066 20.0624 1.93383C20.1438 1.60687 20.1599 1.21597 19.9173 0.901092C19.6701 0.580228 19.2792 0.5 18.9386 0.5H16.8551C16.5563 0.5 16.2699 0.576395 16.0239 0.754018C15.7857 0.926022 15.6215 1.16687 15.513 1.43927L15.1669 2.17451L15.1637 2.18131L15.1607 2.1882C14.8845 2.82372 14.5979 3.40776 14.3014 3.94095C13.8659 4.6951 13.4365 5.31723 13.0145 5.81262C12.8057 6.05646 12.6666 6.18548 12.5895 6.24063C12.5885 6.2208 12.588 6.19897 12.588 6.175V1.825C12.588 1.50816 12.5499 1.1673 12.3819 0.912323C12.1718 0.593689 11.8272 0.5 11.523 0.5H8.23899C7.96575 0.5 7.7205 0.601846 7.52499 0.786406C7.32565 0.97457 7.2093 1.22223 7.2093 1.50625C7.2093 1.81972 7.38376 2.10862 7.56137 2.33765C7.70884 2.52782 7.79816 2.68121 7.84594 2.79962L7.85123 2.81271L7.85724 2.82549C7.96485 3.05403 8.03518 3.33485 8.05679 3.67771V6.925C8.05679 7.01142 8.05449 7.08528 8.05048 7.1476C7.92751 7.04215 7.76946 6.87133 7.5757 6.61984C7.17932 6.10536 6.77264 5.42496 6.35839 4.56957L6.35841 4.56956L6.35638 4.56547C5.89728 3.63913 5.507 2.68879 5.18539 1.71431C5.08505 1.37075 4.94407 1.0445 4.71959 0.827781C4.46276 0.579841 4.12137 0.5 3.78966 0.5H1.70624C1.40569 0.5 1.08692 0.566721 0.841532 0.78822C0.58642 1.0185 0.5 1.33396 0.5 1.6375C0.5 1.96049 0.599922 2.45628 0.763708 3.07748L0.767832 3.09312L0.772958 3.10846C1.0391 3.90498 1.38802 4.76025 1.81799 5.67362C2.37158 6.87466 3.05582 8.0599 3.86934 9.22944C4.74934 10.5776 5.78686 11.6316 6.98694 12.3751C8.17998 13.1141 9.3882 13.5 10.6049 13.5C10.9395 13.5 11.2359 13.4805 11.4866 13.4361C11.7292 13.3931 11.9718 13.3199 12.165 13.1831L12.1718 13.1783L12.1783 13.1734C12.5276 12.9084 12.6137 12.4999 12.588 12.1194V11.1625C12.588 10.5538 12.6006 10.202 12.6189 10.0667L12.6233 10.0335V10C12.6233 9.96045 12.6247 9.92749 12.6267 9.9004C12.6348 9.90014 12.6436 9.9 12.653 9.9C12.7202 9.9 12.9004 9.94557 13.227 10.1689C13.5365 10.3806 13.9189 10.7108 14.3768 11.1724C14.6494 11.4622 14.9648 11.8213 15.3235 12.2515C15.5094 12.4743 15.6709 12.6592 15.807 12.8037C15.9306 12.935 16.0519 13.0533 16.1616 13.1339C16.4543 13.3711 16.7961 13.5 17.173 13.5H19.2564C19.6328 13.5 20.0098 13.3886 20.2654 13.0678C20.5296 12.7362 20.5375 12.3227 20.4493 11.9479L20.4457 11.9327L20.4412 11.9177C20.308 11.4776 19.9694 10.9241 19.4891 10.2818C18.9997 9.6274 18.3276 8.83494 17.4775 7.90687L17.1701 7.54413C17.1186 7.47974 17.0912 7.43385 17.078 7.40576C17.078 7.4057 17.0779 7.40562 17.0779 7.40555C17.0805 7.39764 17.0841 7.38738 17.0893 7.37462C17.1086 7.32678 17.1419 7.26058 17.1951 7.17408C17.2032 7.16326 17.2086 7.15553 17.2098 7.15385C17.222 7.13675 17.2366 7.11565 17.2528 7.09184C17.2856 7.04378 17.3304 6.97677 17.3867 6.89181C17.4996 6.72147 17.6622 6.47334 17.8743 6.14806Z" stroke="#CCCCCC"/>
</svg>
